<?xml version="1.0" encoding="utf-8"?>
<!-- Generator: Adobe Illustrator 19.0.0, SVG Export Plug-In . SVG Version: 6.00 Build 0)  -->
<svg version="1.1" id="watch" xmlns="http://www.w3.org/2000/svg" xmlns:xlink="http://www.w3.org/1999/xlink" x="0px" y="0px"
	 viewBox="0 0 96 96" enable-background="new 0 0 96 96" xml:space="preserve">
<path fill="#FFFFFF" d="M36,94c-5.5142,0-10-4.4863-10-10V73.9326l-0.666-0.5967C18.1309,66.8877,14,57.6523,14,48
	s4.1313-18.8867,11.334-25.3359L26,22.0679V12c0-5.5142,4.4858-10,10-10h24c5.5137,0,10,4.4858,10,10v10.0679l0.666,0.5962
	C77.8691,29.1128,82,38.3472,82,48c0,9.6533-4.1309,18.8877-11.334,25.3359L70,73.9326V84c0,5.5137-4.4863,10-10,10H36z M30,84
	c0,3.3086,2.6914,6,6,6h24c3.3086,0,6-2.6914,6-6v-6.9795l-2.8906,1.4375C58.3838,80.8086,53.3008,82,48,82
	c-5.3003,0-10.3838-1.1914-15.1094-3.542L30,77.0205V84z M48,18c-16.542,0-30,13.458-30,30s13.458,30,30,30s30-13.458,30-30
	S64.542,18,48,18z M48,14c5.2998,0,10.3838,1.1914,15.1094,3.542L66,18.979V12c0-3.3086-2.6914-6-6-6H36c-3.3086,0-6,2.6914-6,6
	v6.979l2.8906-1.437C37.6172,15.1914,42.7007,14,48,14z"/>
<path fill="#FFFFFF" d="M56.4854,58.4844c-0.5342,0-1.0361-0.208-1.4141-0.585l-8.4834-8.4814
	c-0.0913-0.0908-0.1733-0.1924-0.2505-0.3076l-0.064-0.1357l-0.1318-0.2354l-0.041-0.1719l-0.0547-0.1729
	c-0.0303-0.126-0.0425-0.2495-0.043-0.3755L46,32c0-1.103,0.897-2,2-2c1.1025,0,2,0.897,2,2v15.1714l7.9004,7.8999
	c0.377,0.377,0.584,0.8789,0.584,1.4121c0,0.5352-0.209,1.0371-0.5869,1.416C57.5195,58.2773,57.0186,58.4844,56.4854,58.4844z"/>
</svg>
