<?xml version="1.0" encoding="utf-8"?>
<!-- Generator: Adobe Illustrator 23.0.1, SVG Export Plug-In . SVG Version: 6.00 Build 0)  -->
<svg version="1.1" id="Layer_1" xmlns="http://www.w3.org/2000/svg" xmlns:xlink="http://www.w3.org/1999/xlink" x="0px" y="0px"
	 viewBox="0 0 64 64" style="enable-background:new 0 0 64 64;" xml:space="preserve">
<style type="text/css">
	.st0{display:none;}
	.st1{display:inline;fill:#7FCF10;}
	.st2{display:inline;fill:#5DAADF;}
	.st3{display:inline;fill:#FD7501;}
	.st4{fill:none;stroke:#FFFFFF;stroke-miterlimit:10;}
</style>
<g>
	<g class="st0">
		<path class="st1" d="M47.2,25.72C46.35,33.91,39.5,40.4,31,40.64c-8.17,0.22-15.13-5.41-16.82-13.07
			c-0.07,0.72-0.1,1.45-0.08,2.19c0.25,9.2,7.96,16.45,17.21,16.2c9.25-0.25,16.54-7.92,16.28-17.11
			C47.55,27.77,47.42,26.73,47.2,25.72z"/>
		<path class="st2" d="M32.96,45.84c-8.13-1.58-14.02-8.94-13.49-17.38c0.51-8.12,6.77-14.51,14.59-15.5
			c-0.71-0.14-1.44-0.23-2.19-0.28c-9.23-0.57-17.18,6.42-17.75,15.6s6.45,17.09,15.68,17.66C30.87,46.01,31.93,45.97,32.96,45.84z"
			/>
		<path class="st3" d="M14.42,26.53c4.68-4.87,12.69-8.07,19.91-5.67s11.22,8.82,11.61,15.65c0.33-0.65,0.62-1.32,0.86-2.02
			c3.06-8.69-1.54-18.19-10.27-21.24s-18.29,1.53-21.35,10.21C14.83,24.48,14.57,25.5,14.42,26.53z"/>
	</g>
	<g>
		<path class="st4" d="M36.42,52.86c-0.34,0.09-0.69,0.16-1.04,0.23C35.73,53.02,36.07,52.94,36.42,52.86z"/>
		<path class="st4" d="M26.65,52.94c-0.05-0.01-0.11-0.02-0.16-0.04C26.55,52.91,26.6,52.92,26.65,52.94z"/>
		<path class="st4" d="M29.89,53.42c-0.11-0.01-0.22-0.02-0.32-0.02C29.68,53.41,29.79,53.42,29.89,53.42z"/>
		<path class="st4" d="M33.75,53.34c-0.26,0.03-0.52,0.05-0.78,0.07C33.23,53.39,33.49,53.37,33.75,53.34z"/>
		<path class="st4" d="M28.13,53.23c-0.01,0-0.02,0-0.04-0.01C28.1,53.22,28.12,53.23,28.13,53.23z"/>
		<path class="st4" d="M37.7,52.49c-0.4,0.13-0.8,0.25-1.21,0.35C36.91,52.73,37.31,52.61,37.7,52.49z"/>
		<path class="st4" d="M44.98,30.03c-2.62,7.89-9.93,13.69-18.77,14.26c3.64,3.96,8.98,6.49,14.92,6.7c-1.08,0.6-2.23,1.1-3.43,1.49
			c3.92-1.26,7.32-3.65,9.84-6.78c0.32-1.44,0.48-2.96,0.48-4.48C48.03,37.09,46.91,33.26,44.98,30.03z"/>
		<path class="st4" d="M32.56,53.44c-0.4,0.02-0.8,0.04-1.2,0.04C31.76,53.48,32.16,53.47,32.56,53.44z"/>
		<path class="st4" d="M34.96,53.16c-0.25,0.04-0.5,0.08-0.76,0.12C34.46,53.24,34.71,53.2,34.96,53.16z"/>
		<path class="st4" d="M12.85,28.74c2.87-4.08,7.11-7.01,12.01-7.99c1.17-0.23,2.38-0.37,3.62-0.37c6.95,0,13.04,3.84,16.51,9.65"/>
		<path class="st4" d="M47.55,45.7C47.55,45.7,47.55,45.7,47.55,45.7c3.13-3.6,5.05-8.33,5.05-13.54c0-11.46-9.38-20.84-21-20.84
			c-10.85,0-19.79,8.22-20.82,18.79"/>
		<path class="st4" d="M35.38,53.09c-0.14,0.03-0.28,0.05-0.41,0.07C35.1,53.14,35.24,53.11,35.38,53.09z"/>
		<path class="st4" d="M36.5,52.84c-0.03,0.01-0.06,0.01-0.08,0.02C36.44,52.85,36.47,52.84,36.5,52.84z"/>
		<path class="st4" d="M37.71,52.49C37.71,52.49,37.71,52.49,37.71,52.49C37.71,52.49,37.71,52.49,37.71,52.49z"/>
		<path class="st4" d="M34.21,53.28c-0.15,0.02-0.3,0.04-0.46,0.06C33.91,53.32,34.06,53.3,34.21,53.28z"/>
		<path class="st4" d="M28.09,53.22c-0.49-0.08-0.97-0.17-1.44-0.28C27.13,53.05,27.61,53.15,28.09,53.22z"/>
		<path class="st4" d="M12.85,28.74c-0.85,1.21-1.58,2.51-2.17,3.9v-0.48c0-0.69,0.04-1.37,0.1-2.05c-0.12,0.88-0.18,1.78-0.18,2.69
			c0,9.72,6.78,17.91,15.89,20.1c-6.65-1.61-12.05-6.43-14.45-12.73"/>
		<path class="st4" d="M26.21,44.29c-3.08-3.35-4.95-7.73-4.95-12.61c0-4.08,1.34-7.82,3.6-10.93"/>
		<path class="st4" d="M31.36,53.48c-0.49,0-0.98-0.02-1.47-0.06C30.38,53.46,30.87,53.48,31.36,53.48z"/>
		<path class="st4" d="M32.97,53.41c-0.14,0.01-0.27,0.02-0.41,0.03C32.7,53.43,32.83,53.42,32.97,53.41z"/>
		<path class="st4" d="M29.57,53.4c-0.49-0.04-0.97-0.1-1.44-0.17C28.6,53.3,29.09,53.36,29.57,53.4z"/>
	</g>
</g>
</svg>
