<?xml version="1.0" encoding="utf-8"?>
<!-- Generator: Adobe Illustrator 23.0.1, SVG Export Plug-In . SVG Version: 6.00 Build 0)  -->
<svg version="1.1" id="Layer_1" xmlns="http://www.w3.org/2000/svg" xmlns:xlink="http://www.w3.org/1999/xlink" x="0px" y="0px"
	 viewBox="0 0 140 64" style="enable-background:new 0 0 140 64;" xml:space="preserve">
<style type="text/css">
	.st0{fill-rule:evenodd;clip-rule:evenodd;fill:#FFFFFF;}
	.st1{fill:#FFFFFF;}
</style>
<g>
	<g>
		<g>
			<path class="st0" d="M5.17,18.69c1.12-0.49,2.17-0.91,3.3-1.05c2.95-0.35,6.1,1.12,6.24,5.05c0.07,3.44,0,6.87,0,10.31
				c0,0.77-0.21,1.19-0.98,1.33c-0.63,0.07-1.19-0.56-1.19-1.33v-9.82c0.07-2.46-1.61-3.72-3.93-3.58
				c-1.03,0.07-2.02,0.41-2.88,0.98c-0.42,0.28-0.56,0.56-0.56,1.05v10.73c0,0.35,0,0.63-0.07,0.98c-0.14,0.63-0.56,0.98-1.19,0.91
				C3.28,34.2,3,33.77,3,33.07V12.59c0-1.05,0.21-1.33,1.05-1.4c0.77,0,1.12,0.35,1.12,1.4C5.17,12.59,5.17,18.69,5.17,18.69z
				 M46.49,18.69c1.12-0.49,2.17-0.91,3.3-1.05c2.95-0.35,6.17,1.12,6.24,5.05c0.07,3.44,0,6.87,0,10.31c0,0.77-0.21,1.19-0.98,1.33
				c-0.63,0.07-1.19-0.56-1.19-1.33v-9.82c0.07-2.46-1.61-3.72-3.93-3.58c-1.03,0.07-2.02,0.41-2.88,0.98
				c-0.42,0.28-0.56,0.56-0.56,1.05v10.73c0,0.35,0,0.63-0.07,0.98c-0.14,0.63-0.56,0.98-1.19,0.91c-0.63-0.07-0.91-0.49-0.91-1.19
				V12.59c0-1.05,0.21-1.33,0.98-1.4c0.77,0,1.12,0.35,1.12,1.4v5.19C46.49,17.99,46.49,18.27,46.49,18.69z M122.61,25.57v6.52
				c0,0.77-0.28,1.26-0.98,1.47c-2.46,0.77-4.98,1.26-7.58,0.42c-1.89-0.63-3.16-2.32-3.23-4.35c-0.07-3.58,0-7.23,0-10.8
				c0-0.63,0.35-0.98,0.91-1.05s0.91,0.21,1.12,0.77C113,18.9,113,19.25,113,19.6v8.84c-0.07,3.23,2.03,4.21,4.63,3.93
				c0.7-0.07,1.33-0.28,2.03-0.35c0.56-0.07,0.77-0.35,0.7-0.98V19.6c0-0.42,0-0.77,0.14-1.12c0.21-0.56,0.63-0.84,1.19-0.7
				c0.56,0.07,0.84,0.42,0.84,1.05C122.61,21.08,122.61,23.32,122.61,25.57z M132.5,17.71c0.98,0.07,2.24,0.28,3.44,0.77
				c0.63,0.28,1.19,0.63,0.84,1.33c-0.28,0.63-0.84,0.77-1.54,0.56c-1.33-0.42-2.6-0.91-4.07-0.49c-1.12,0.35-1.89,1.12-1.96,2.1
				c0,1.05,0.63,1.68,1.54,2.1l3.93,1.82c2.03,0.98,2.88,2.6,2.53,4.77c-0.28,1.75-1.89,3.3-3.79,3.65
				c-1.96,0.35-3.79-0.07-5.61-0.77c-0.63-0.28-0.77-0.84-0.56-1.4c0.21-0.56,0.7-0.63,1.26-0.49c0.84,0.28,1.75,0.56,2.67,0.7
				c1.75,0.28,3.44-0.49,3.93-1.89c0.28-0.91-0.07-1.89-0.98-2.53c-1.26-0.84-2.67-1.33-4.07-1.89c-2.67-1.12-3.37-3.16-2.6-5.61
				C128.01,18.76,129.97,17.71,132.5,17.71L132.5,17.71z M60.95,27.25v-5.26c-0.14-3.09,2.39-4.7,5.19-4.35
				c0.42,0.07,0.84,0.07,1.26,0.21c0.7,0.14,1.12,0.7,0.98,1.33c-0.21,0.7-0.77,0.77-1.4,0.7c-0.7-0.07-1.33-0.35-2.03-0.14
				c-1.19,0.35-1.75,0.98-1.75,2.17v10.52c0,0.35,0,0.7-0.14,1.05c-0.21,0.56-0.56,0.84-1.12,0.77c-0.56-0.07-0.91-0.42-0.91-1.05
				L60.95,27.25L60.95,27.25z M19.91,25.85v-7.02c0-0.7,0.28-1.19,0.91-1.26c0.7-0.07,1.05,0.42,1.19,1.05
				c0.07,0.28,0.07,0.56,0.07,0.84v12.98c0,0.35,0,0.63-0.07,0.98c-0.14,0.63-0.56,0.91-1.12,0.84c-0.63-0.07-0.91-0.49-0.91-1.12
				L19.91,25.85z M103.67,25.99v-7.02c0-0.7,0.28-1.19,0.91-1.26c0.63-0.07,1.05,0.35,1.19,0.98c0.07,0.28,0.07,0.63,0.07,0.91
				v12.98c0,0.35,0,0.7-0.14,1.05c-0.21,0.56-0.56,0.84-1.12,0.77c-0.56-0.07-0.91-0.42-0.91-1.05
				C103.74,30.9,103.67,28.44,103.67,25.99z"/>
		</g>
	</g>
	<g>
		<path class="st1" d="M38.71,27.74v-7.72c0-0.84-0.35-1.47-1.26-1.75c-2.03-0.63-4.07-0.98-6.24-0.63
			c-2.39,0.35-4.35,2.46-4.42,4.84v6.8c0.07,2.03,1.47,3.93,3.44,4.56s3.93,0.49,5.75-0.56c0.42-0.28,0.56-0.21,0.56,0.28v2.17
			c0,1.82-1.47,3.23-3.3,3.3c-1.4,0.07-2.74-0.14-4-0.7c-0.56-0.28-1.19-0.28-1.54,0.35c-0.35,0.7,0.07,1.12,0.77,1.4
			c0.7,0.35,1.47,0.56,2.24,0.7c1.25,0.28,2.54,0.28,3.79,0c2.74-0.7,4.14-2.81,4.21-5.54C38.78,32.86,38.71,30.34,38.71,27.74z
			 M35.97,31.25c-1.68,1.05-3.37,1.47-5.26,0.56c-1.19-0.56-1.68-1.54-1.68-2.74c-0.07-1.89,0-3.86,0-5.75
			c0-2.32,1.19-3.58,3.51-3.72c1.19-0.07,2.32,0.21,3.44,0.42c0.49,0.07,0.63,0.35,0.63,0.84v9.26
			C36.53,30.62,36.39,30.97,35.97,31.25z M98.48,12.66c0-0.91-0.35-1.33-1.12-1.33c-0.7,0-1.05,0.42-1.05,1.33v5.54
			c0,0.7-0.21,0.77-0.77,0.42c-0.77-0.49-1.61-0.7-2.53-0.84c-3.09-0.35-6.31,1.26-6.45,5.12c-0.07,2.2-0.07,4.4,0,6.59
			c0.07,2.17,1.61,4.07,3.79,4.7c2.32,0.63,4.49,0.21,6.73-0.42c1.19-0.35,1.4-0.7,1.4-1.96L98.48,12.66L98.48,12.66z M95.88,32.02
			c-1.47,0.28-3.02,0.63-4.49,0.28c-1.54-0.42-2.53-1.54-2.53-3.16v-5.75c0-2.53,1.96-4.07,4.42-3.58c0.28,0.07,0.63,0.07,0.91,0.21
			c1.96,0.63,2.24,0.98,2.24,3.02v8.28C96.3,31.67,96.3,31.95,95.88,32.02z M81.92,27.04v-5.12c-0.07-1.33-0.56-2.53-1.75-3.23
			c-2.74-1.68-5.47-1.33-8.21-0.07c-0.56,0.28-1.12,0.63-0.77,1.4c0.28,0.7,0.84,0.84,1.68,0.49s1.61-0.63,2.53-0.84
			c2.74-0.56,4.42,0.77,4.35,3.51c0,1.47,0.14,1.26-1.33,1.26c-1.82,0-3.65,0-5.4,0.63c-1.96,0.7-2.88,2.17-2.95,4.14
			c-0.07,1.82,0.56,3.44,2.46,4.28c2.88,1.26,5.82,0.91,8.7-0.07c0.56-0.21,0.77-0.7,0.77-1.26C81.92,30.48,81.92,28.72,81.92,27.04
			z M79.75,27.04v3.44c0,1.33,0,1.33-1.33,1.61s-2.67,0.28-4.07,0c-1.33-0.28-2.24-1.47-2.17-2.88c0.07-1.33,1.19-2.46,2.67-2.67
			c1.4-0.21,2.81-0.14,4.21-0.14C79.61,26.41,79.75,26.62,79.75,27.04z"/>
	</g>
	<path class="st1" d="M106.4,13.78c0,0.91-0.77,1.68-1.68,1.68c-0.91,0-1.68-0.77-1.68-1.68c0-0.91,0.77-1.68,1.68-1.68
		C105.63,12.17,106.4,12.87,106.4,13.78z"/>
	<path class="st1" d="M22.78,13.78c0,0.91-0.77,1.68-1.68,1.68s-1.68-0.77-1.68-1.68s0.77-1.68,1.68-1.68
		C22.08,12.17,22.78,12.87,22.78,13.78z"/>
	<g>
		<path class="st1" d="M30.1,43.7v7.8h-1v-7.8H30.1z M31.9,47.4v-1.5h0.9l0.1,0.9c0.3-0.5,0.9-1.1,1.8-1.1c0.8,0,2,0.5,2,2.4v3.3h-1
			v-3.2c0-0.9-0.3-1.7-1.3-1.7c-0.7,0-1.2,0.5-1.4,1c0,0.1-0.1,0.3-0.1,0.5v3.4h-1C31.9,51.4,31.9,47.4,31.9,47.4z"/>
		<g>
			<path id="A_2_" class="st1" d="M39.5,44.3v1.6H41v0.8h-1.5v3c0,0.7,0.2,1.1,0.8,1.1c0.3,0,0.5,0,0.6-0.1v0.8
				c-0.2,0.1-0.5,0.1-0.9,0.1c-0.5,0-0.9-0.2-1.1-0.4c-0.3-0.3-0.4-0.8-0.4-1.5v-3h-0.9v-0.8h0.9v-1.3L39.5,44.3L39.5,44.3z"/>
		</g>
		<g>
			<path id="B_2_" class="st1" d="M42.6,48.9c0,1.4,0.9,1.9,1.9,1.9c0.7,0,1.2-0.1,1.5-0.3l0.2,0.7c-0.4,0.2-1,0.3-1.9,0.3
				c-1.7,0-2.7-1.1-2.7-2.8s1-3,2.6-3c1.8,0,2.3,1.6,2.3,2.6v0.5h-3.9L42.6,48.9z M45.6,48.2c0-0.6-0.3-1.7-1.4-1.7
				c-1,0-1.5,0.9-1.6,1.7H45.6z"/>
		</g>
		<path class="st1" d="M52.6,45.9v4.7c0,1.3-0.3,2.1-0.8,2.6s-1.3,0.7-2,0.7s-1.4-0.2-1.9-0.5l0.3-0.8c0.4,0.2,0.9,0.4,1.6,0.4
			c1,0,1.8-0.5,1.8-2v-0.6c-0.3,0.5-0.9,0.9-1.8,0.9c-1.4,0-2.4-1.2-2.4-2.7c0-1.9,1.2-3,2.5-3c1,0,1.5,0.5,1.7,1v-0.8h1L52.6,45.9z
			 M51.6,48.1c0-0.2,0-0.3-0.1-0.5c-0.2-0.6-0.7-1.1-1.4-1.1c-1,0-1.7,0.8-1.7,2.1c0,1.1,0.6,2,1.7,2c0.6,0,1.2-0.4,1.4-1
			c0.1-0.2,0.1-0.4,0.1-0.5V48.1z M54.2,47.7V46h0.9v1.1c0.3-0.8,0.9-1.2,1.5-1.2h0.3v1h-0.3c-0.7,0-1.2,0.5-1.4,1.3v3.5h-1V47.7z"
			/>
		<g>
			<path id="C_2_" class="st1" d="M61,51.5l-0.1-0.7c-0.3,0.4-0.9,0.8-1.7,0.8c-1.1,0-1.7-0.8-1.7-1.6c0-1.4,1.2-2.1,3.4-2.1v-0.1
				c0-0.5-0.1-1.3-1.3-1.3c-0.5,0-1.1,0.2-1.5,0.4l-0.2-0.7c0.5-0.3,1.1-0.5,1.8-0.5c1.7,0,2.1,1.2,2.1,2.3v2.1c0,0.5,0,1,0.1,1.3
				H61L61,51.5z M60.8,48.7c-1.1,0-2.4,0.2-2.4,1.3c0,0.7,0.4,1,1,1c0.7,0,1.2-0.5,1.4-0.9c0-0.1,0.1-0.2,0.1-0.3v-1.1H60.8z"/>
		</g>
		<g>
			<path class="st1" d="M64.6,44.3v1.6h1.5v0.8h-1.5v3c0,0.7,0.2,1.1,0.8,1.1c0.3,0,0.5,0,0.6-0.1v0.8c-0.2,0.1-0.5,0.1-0.9,0.1
				c-0.5,0-0.9-0.2-1.1-0.4c-0.3-0.3-0.4-0.8-0.4-1.5v-3h-0.9v-0.8h0.9v-1.3L64.6,44.3L64.6,44.3z"/>
		</g>
		<g>
			<path class="st1" d="M67.7,48.9c0,1.4,0.9,1.9,1.9,1.9c0.7,0,1.2-0.1,1.5-0.3l0.2,0.7c-0.4,0.2-1,0.3-1.9,0.3
				c-1.7,0-2.7-1.1-2.7-2.8s1-3,2.6-3c1.8,0,2.3,1.6,2.3,2.6v0.5h-3.9L67.7,48.9z M70.7,48.2c0-0.6-0.3-1.7-1.4-1.7
				c-1,0-1.5,0.9-1.6,1.7H70.7z"/>
		</g>
		<path class="st1" d="M77.8,43.3v8.2h-0.9v-1c-0.3,0.6-1,1.1-1.9,1.1c-1.4,0-2.4-1.1-2.4-2.8c0-1.9,1.1-3,2.5-3
			c0.9,0,1.4,0.4,1.7,0.9v-3.3h1L77.8,43.3z M76.8,48.2v-0.4c-0.2-0.6-0.7-1.2-1.5-1.2c-1.1,0-1.7,0.9-1.7,2.2
			c0,1.1,0.6,2.1,1.7,2.1c0.7,0,1.3-0.5,1.5-1.2V48.2z M82,43.8c0.63-0.13,1.26-0.19,1.9-0.2c1.1,0,1.8,0.2,2.3,0.6
			c0.4,0.3,0.6,0.9,0.6,1.5c0,1-0.6,1.7-1.5,2c0.6,0.2,1,0.8,1.1,1.6c0.3,1.1,0.4,1.8,0.6,2.1h-1c-0.1-0.2-0.3-0.9-0.5-1.9
			c-0.2-1.1-0.6-1.5-1.6-1.5H83v3.4h-1L82,43.8L82,43.8z M83,47.4h1c1.1,0,1.8-0.6,1.8-1.5c0-1-0.7-1.4-1.8-1.5c-0.5,0-0.8,0-1,0.1
			V47.4z M88.8,48.9c0,1.4,0.9,1.9,1.9,1.9c0.7,0,1.2-0.1,1.5-0.3l0.2,0.7c-0.4,0.2-1,0.3-1.9,0.3c-1.7,0-2.7-1.1-2.7-2.8s1-3,2.6-3
			c1.8,0,2.3,1.6,2.3,2.6v0.5h-3.9L88.8,48.9z M91.7,48.2c0-0.6-0.3-1.7-1.4-1.7c-1,0-1.5,0.9-1.6,1.7H91.7z M98,51.3
			c-0.3,0.1-0.9,0.3-1.6,0.3c-1.7,0-2.8-1.1-2.8-2.9c0-1.7,1.2-3,3-3c0.6,0,1.1,0.2,1.4,0.3l-0.2,0.8c-0.2-0.1-0.6-0.3-1.2-0.3
			c-1.3,0-2,0.9-2,2.1c0,1.3,0.8,2.1,1.9,2.1c0.6,0,1-0.2,1.2-0.3L98,51.3L98,51.3z"/>
		<g>
			<path class="st1" d="M99.6,48.9c0,1.4,0.9,1.9,1.9,1.9c0.7,0,1.2-0.1,1.5-0.3l0.2,0.7c-0.4,0.2-1,0.3-1.9,0.3
				c-1.7,0-2.7-1.1-2.7-2.8s1-3,2.6-3c1.8,0,2.3,1.6,2.3,2.6v0.5h-3.9L99.6,48.9z M102.6,48.2c0-0.6-0.3-1.7-1.4-1.7
				c-1,0-1.5,0.9-1.6,1.7H102.6z"/>
		</g>
		<path class="st1" d="M106,44.4c0,0.3-0.2,0.6-0.6,0.6s-0.6-0.3-0.6-0.6c0-0.4,0.3-0.6,0.6-0.6C105.8,43.7,106,44,106,44.4z
			 M104.9,51.5v-5.6h1v5.6H104.9z M108,45.9l1.1,3.1c0.2,0.5,0.3,1,0.5,1.4c0.1-0.5,0.3-0.9,0.5-1.4l1.1-3.1h1.1l-2.2,5.6h-1
			l-2.1-5.6H108L108,45.9z"/>
		<g>
			<path class="st1" d="M116.2,51.5l-0.1-0.7c-0.3,0.4-0.9,0.8-1.7,0.8c-1.1,0-1.7-0.8-1.7-1.6c0-1.4,1.2-2.1,3.4-2.1v-0.1
				c0-0.5-0.1-1.3-1.3-1.3c-0.5,0-1.1,0.2-1.5,0.4l-0.2-0.7c0.5-0.3,1.1-0.5,1.8-0.5c1.7,0,2.1,1.2,2.1,2.3v2.1c0,0.5,0,1,0.1,1.3
				h-0.9L116.2,51.5z M116,48.7c-1.1,0-2.4,0.2-2.4,1.3c0,0.7,0.4,1,1,1c0.7,0,1.2-0.5,1.4-0.9c0-0.1,0.1-0.2,0.1-0.3v-1.1H116z"/>
		</g>
		<path class="st1" d="M118.6,51.5v-8.2h1v3.5c0.4-0.6,1-1,1.9-1c1.4,0,2.4,1.2,2.4,2.9c0,2-1.3,3-2.5,3c-0.8,0-1.5-0.3-1.9-1.1v0.9
			L118.6,51.5z M119.7,49.3v0.4c0.2,0.7,0.8,1.2,1.5,1.2c1.1,0,1.7-0.9,1.7-2.1c0-1.1-0.6-2.1-1.7-2.1c-0.7,0-1.3,0.5-1.5,1.2
			c0,0.1-0.1,0.3-0.1,0.4v1L119.7,49.3z M125.2,43.3h1v8.2h-1V43.3z"/>
		<g>
			<path class="st1" d="M128.5,48.9c0,1.4,0.9,1.9,1.9,1.9c0.7,0,1.2-0.1,1.5-0.3l0.2,0.7c-0.4,0.2-1,0.3-1.9,0.3
				c-1.7,0-2.7-1.1-2.7-2.8s1-3,2.6-3c1.8,0,2.3,1.6,2.3,2.6v0.5h-3.9L128.5,48.9z M131.5,48.2c0-0.6-0.3-1.7-1.4-1.7
				c-1,0-1.5,0.9-1.6,1.7H131.5z"/>
		</g>
		<path class="st1" d="M133.6,50.5c0.3,0.2,0.8,0.4,1.3,0.4c0.7,0,1.1-0.4,1.1-0.8c0-0.5-0.3-0.8-1-1c-1-0.4-1.5-0.9-1.5-1.6
			c0-0.9,0.7-1.6,1.9-1.6c0.6,0,1.1,0.2,1.4,0.3l-0.3,0.7c-0.2-0.1-0.6-0.3-1.1-0.3c-0.6,0-0.9,0.3-0.9,0.8s0.3,0.7,1.1,0.9
			c1,0.4,1.5,0.9,1.5,1.7c0,1-0.8,1.7-2.1,1.7c-0.6,0-1.2-0.2-1.6-0.4L133.6,50.5L133.6,50.5z"/>
	</g>
</g>
</svg>
