<?xml version="1.0" encoding="utf-8"?>
<!-- Generator: Adobe Illustrator 17.0.0, SVG Export Plug-In . SVG Version: 6.00 Build 0)  -->
<!DOCTYPE svg PUBLIC "-//W3C//DTD SVG 1.1//EN" "http://www.w3.org/Graphics/SVG/1.1/DTD/svg11.dtd">
<svg version="1.1" id="Layer_1" xmlns="http://www.w3.org/2000/svg" xmlns:xlink="http://www.w3.org/1999/xlink" x="0px" y="0px"
	 width="381.592px" height="436.101px" viewBox="59.205 31.95 381.592 436.101"
	 enable-background="new 59.205 31.95 381.592 436.101" xml:space="preserve">
<path fill="#AAAAAA" d="M418.081,122.802h-59.057V68.29c0-20.077-16.262-36.34-36.341-36.34H177.316
	c-20.078,0-36.342,16.264-36.342,36.34v54.513H81.918c-12.536,0-22.713,10.177-22.713,22.715c0,12.536,10.177,22.713,22.713,22.713
	h13.629v263.48c0,20.078,16.262,36.34,36.341,36.34h236.224c20.078,0,36.341-16.262,36.341-36.34v-263.48h13.629
	c12.535,0,22.715-10.177,22.715-22.713C440.796,132.979,430.616,122.802,418.081,122.802z M313.598,122.802H186.4V97.367
	c0-11.083,8.909-19.991,19.991-19.991h87.216c11.084,0,19.99,8.909,19.99,19.991v25.435H313.598z M186.4,186.401v218.051
	c0,9.992-8.181,18.172-18.17,18.172s-18.17-8.18-18.17-18.172V186.401c0-9.989,8.18-18.17,18.17-18.17S186.4,176.412,186.4,186.401z
	 M268.172,186.401v218.051c0,9.992-8.181,18.172-18.172,18.172c-9.99,0-18.17-8.18-18.17-18.172V186.401
	c0-9.989,8.181-18.17,18.17-18.17C259.991,168.231,268.172,176.412,268.172,186.401z M349.938,186.401v218.051
	c0,9.992-8.181,18.172-18.169,18.172c-9.99,0-18.172-8.18-18.172-18.172V186.401c0-9.989,8.182-18.17,18.172-18.17
	C341.758,168.231,349.938,176.412,349.938,186.401z"/>
</svg>
