<?xml version="1.0" encoding="utf-8"?>
<!-- Generator: Adobe Illustrator 17.0.0, SVG Export Plug-In . SVG Version: 6.00 Build 0)  -->
<!DOCTYPE svg PUBLIC "-//W3C//DTD SVG 1.1//EN" "http://www.w3.org/Graphics/SVG/1.1/DTD/svg11.dtd">
<svg version="1.1" id="bar_graph" xmlns="http://www.w3.org/2000/svg" xmlns:xlink="http://www.w3.org/1999/xlink" x="0px" y="0px"
	 width="84px" height="84px" viewBox="6 6 84 84" enable-background="new 6 6 84 84" xml:space="preserve">
<path fill="#fff" d="M16,90c-5.514,0-10-4.486-10-10V64c0-5.514,4.486-10,10-10s10,4.486,10,10v16C26,85.514,21.514,90,16,90z
	 M16,58c-3.309,0-6,2.691-6,6v16c0,3.309,2.691,6,6,6s6-2.691,6-6V64C22,60.691,19.309,58,16,58z"/>
<path fill="#fff" d="M48,90c-5.514,0-10-4.486-10-10V16c0-5.514,4.486-10,10-10c5.514,0,10,4.486,10,10v64
	C58,85.514,53.514,90,48,90z M48,10c-3.309,0-6,2.691-6,6v64c0,3.309,2.691,6,6,6s6-2.691,6-6V16C54,12.691,51.309,10,48,10z"/>
<path fill="#fff" d="M80,90c-5.514,0-10-4.486-10-10V40c0-5.514,4.486-10,10-10s10,4.486,10,10v40C90,85.514,85.514,90,80,90z
	 M80,34c-3.309,0-6,2.691-6,6v40c0,3.309,2.691,6,6,6s6-2.691,6-6V40C86,36.691,83.309,34,80,34z"/>
</svg>
