
<svg xmlns="http://www.w3.org/2000/svg" version="1.1" xmlns:xlink="http://www.w3.org/1999/xlink" preserveAspectRatio="none" x="0px" y="0px" width="64px" height="64px" viewBox="0 0 64 64">
<defs/>

<g id="Layer_7">
<g transform="matrix( 1, 0, 0, 1, 0,0) ">
<g>
<g>
<path fill="#FFFFFF" fill-opacity="0.8" stroke="none" d="
M 55.1 19.35
Q 53.3763671875 16.3763671875 50.75 13.75 50.137890625 13.137890625 49.5 12.55 48.170703125 11.39140625 46.75 10.4 41.2361328125 6.67890625 34.35 6.2 31.141796875 5.9126953125 28.05 6.45 25.9822265625 6.7900390625 24 7.45 22.6876953125 7.919921875 21.4 8.5 20.1505859375 9.1388671875 18.9 9.9 17.947265625 10.4748046875 17.05 11.1 15.4748046875 12.284765625 14 13.75 12.2177734375 15.544140625 10.8 17.5 9.49296875 19.4341796875 8.55 21.6 7.66640625 23.662890625 7.1 25.95 6.98828125 26.4078125 6.9 26.85 6.7802734375 27.4556640625 6.65 28.05 5.3890625 35.6328125 8.5 42.55 9.193359375 44.0970703125 10.1 45.6 11.9568359375 48.6505859375 14.35 50.95 16.1703125 52.683203125 18.4 54.1 19.660546875 54.9078125 20.95 55.55 23.3794921875 56.7107421875 26.15 57.4 29.9123046875 58.317578125 33.5 58.15 35.7212890625 58.0576171875 38 57.55 39.262109375 57.2736328125 40.45 56.9 48.54140625 54.3619140625 53.5 47.3 53.9173828125 46.7501953125 54.3 46.15 55.628125 44.059765625 56.55 41.9 57.435546875 39.7494140625 57.9 37.45 58.2884765625 35.5380859375 58.35 33.5 58.4 32.840234375 58.4 32.15 58.4 31.9431640625 58.4 31.7 58.3861328125 31.0865234375 58.35 30.45 58.000390625 24.3984375 55.1 19.35
M 49.85 30.45
Q 48.9251953125 33.7173828125 46.95 36.8 41.65 45.15 31.95 47.35 28.621875 48.066796875 25.45 47.9 23.3783203125 45.8376953125 21.75 43.15 16.65 34.7 18.95 25 19.86953125 21.3025390625 21.65 18.25 24.881640625 17.35 28.45 17.35 38.35 17.35 45.4 24.4 48.19765625 27.19765625 49.85 30.45 Z"/>
</g>
</g>
</g>

<g transform="matrix( 1, 0, 0, 1, 0,0) ">
<g>
<path stroke="#5DAAE0" stroke-width="1" stroke-linejoin="round" stroke-linecap="round" fill="none" d="
M 50.75 13.75
Q 50.137890625 13.137890625 49.5 12.575 48.170703125 11.39140625 46.75 10.425 41.2361328125 6.67890625 34.35 6.225 31.141796875 5.9126953125 28.05 6.45 25.9822265625 6.7900390625 24 7.475 22.6876953125 7.919921875 21.425 8.525 20.1505859375 9.1388671875 18.9 9.9 17.947265625 10.4748046875 17.075 11.1 15.4748046875 12.284765625 14 13.75 12.2177734375 15.544140625 10.825 17.5 9.49296875 19.4341796875 8.55 21.6 7.66640625 23.662890625 7.1 25.95 6.98828125 26.4078125 6.9 26.875 6.7802734375 27.4556640625 6.675 28.05 6.4294921875 29.8076171875 6.4 31.675 8.1478515625 27.7255859375 11.45 24.4 15.9908203125 19.8912109375 21.675 18.275 24.881640625 17.35 28.45 17.35 38.35 17.35 45.4 24.4 48.19765625 27.19765625 49.875 30.45 52.45 35.378515625 52.45 41.35 52.45 46.3380859375 50.65 50.6 50.705078125 50.5451171875 50.75 50.5 52.2865234375 48.9734375 53.525 47.325 53.9173828125 46.7501953125 54.3 46.15 55.628125 44.059765625 56.55 41.9 57.435546875 39.7494140625 57.9 37.475 58.2884765625 35.5380859375 58.375 33.525 58.4 32.840234375 58.4 32.15 58.4 31.9431640625 58.4 31.725 58.3861328125 31.0865234375 58.35 30.45 58.000390625 24.3984375 55.1 19.375 53.3763671875 16.3763671875 50.75 13.75 Z
M 55.1 19.375
Q 52.96796875 15.5013671875 49.5 12.575
M 58.375 33.525
Q 58.4248046875 32.6275390625 58.4 31.725
M 49.875 30.45
Q 48.9251953125 33.7173828125 46.95 36.8 41.65 45.15 31.95 47.35 28.621875 48.066796875 25.45 47.925 29.951171875 52.4087890625 36.55 54.05 41.2 55.15 45.45 54.6 42.9962890625 56.037109375 40.45 56.9 48.54140625 54.3619140625 53.525 47.325 55.417578125 44.7681640625 56.55 41.9
M 17.075 11.1
Q 13.281640625 13.796875 10.825 17.5
M 6.675 28.05
Q 5.3890625 35.6328125 8.5 42.55 9.193359375 44.0970703125 10.1 45.6 11.9568359375 48.6505859375 14.35 50.975 16.1703125 52.683203125 18.4 54.1 19.660546875 54.9078125 20.95 55.55 23.3794921875 56.7107421875 26.15 57.4 29.9123046875 58.317578125 33.525 58.175 35.7212890625 58.0576171875 38 57.55 39.262109375 57.2736328125 40.45 56.9 37.0673828125 58.0490234375 33.525 58.175 26.91953125 58.56328125 20.95 55.55 17.25390625 53.7998046875 14.35 50.975 10.5353515625 47.401171875 8.5 42.55
M 25.45 47.925
Q 23.3783203125 45.8376953125 21.75 43.15 16.65 34.7 18.95 25 19.86953125 21.3025390625 21.675 18.275
M 17.075 11.1
Q 19.1439453125 9.559375 21.425 8.525"/>
</g>
</g>
</g>
</svg>
