<?xml version="1.0" encoding="utf-8"?>
<!-- Generator: Adobe Illustrator 17.0.0, SVG Export Plug-In . SVG Version: 6.00 Build 0)  -->
<!DOCTYPE svg PUBLIC "-//W3C//DTD SVG 1.1//EN" "http://www.w3.org/Graphics/SVG/1.1/DTD/svg11.dtd">
<svg version="1.1" id="power" xmlns="http://www.w3.org/2000/svg" xmlns:xlink="http://www.w3.org/1999/xlink" x="0px" y="0px"
	 width="83.962px" height="91.98px" viewBox="6.019 2 83.962 91.98" enable-background="new 6.019 2 83.962 91.98"
	 xml:space="preserve">
<path fill="#fff" d="M48,93.98c-11.23,0-21.778-4.362-29.698-12.282C10.381,73.778,6.019,63.23,6.019,52
	c0-11.231,4.362-21.778,12.283-29.698c1.133-1.133,2.64-1.757,4.243-1.757s3.11,0.624,4.243,1.757c2.34,2.339,2.34,6.146,0,8.485
	c-5.657,5.657-8.772,13.19-8.772,21.214c0,8.022,3.115,15.557,8.772,21.213c5.656,5.656,13.19,8.771,21.213,8.771
	c8.023,0,15.557-3.114,21.213-8.771c11.695-11.697,11.695-30.73,0-42.428c-2.339-2.339-2.339-6.146,0-8.485
	c1.134-1.133,2.641-1.757,4.243-1.757s3.109,0.624,4.242,1.758c7.92,7.92,12.282,18.467,12.282,29.699
	c0,11.23-4.362,21.777-12.283,29.697C69.778,89.618,59.231,93.98,48,93.98z"/>
<path fill="#fff" d="M48,54c-3.309,0-6-2.691-6-6V8c0-3.309,2.691-6,6-6s6,2.691,6,6v40C54,51.309,51.309,54,48,54z"/>
</svg>
