
<svg xmlns="http://www.w3.org/2000/svg" version="1.1" xmlns:xlink="http://www.w3.org/1999/xlink" preserveAspectRatio="none" x="0px" y="0px" width="150px" height="64px" viewBox="0 0 150 64">
<defs/>

<g id="Layer_1">
<g transform="matrix( 1, 0, 0, 1, 0,0) ">
<g>
<g>
<path fill="#FFFFFF" fill-opacity="0.8" stroke="none" d="
M 9.05 17.05
Q 9.05 16.25 8.75 15.95 8.5 15.6 7.9 15.6 7.25 15.7 7.05 15.95 6.8 16.25 6.8 17.05
L 6.8 37.95
Q 6.8 39.1 7.75 39.2 8.7 39.35 8.95 38.3 9.05 37.95 9.05 37.25
L 9.05 26.25
Q 9.05 25.6 9.6 25.2 11 24.25 12.55 24.2 14.4 24.1 15.5 25.05 16.6 26.05 16.6 27.9
L 16.6 37.95
Q 16.6 38.55 16.95 38.95 17.35 39.35 17.8 39.3 18.8 39.1 18.8 37.95
L 18.8 27.35
Q 18.7 24.5 16.65 23.1 14.9 21.9 12.4 22.15 11.05 22.35 9.05 23.25
L 9.05 17.05
M 25.05 22.15
Q 24.1 22.15 24.1 23.4
L 24.15 38.05
Q 24.15 39.1 25.1 39.2 26.05 39.35 26.25 38.35 26.3 38 26.3 37.35
L 26.3 24.1
Q 26.3 23.5 26.25 23.2 26.05 22.05 25.05 22.15
M 26.6 17.05
Q 26.1 16.55 25.35 16.5 24.6 16.5 24.1 17 23.6 17.55 23.6 18.25 23.6 19 24.1 19.5 24.6 20 25.35 20 26.05 20 26.55 19.5 27.05 19 27.05 18.25 27.05 17.55 26.6 17.05
M 49.3 15.95
Q 49.1 16.25 49.1 17.05
L 49.1 37.95
Q 49.1 39.1 50.05 39.2 51 39.35 51.25 38.3 51.3 37.95 51.3 37.25
L 51.3 26.25
Q 51.3 25.6 51.9 25.2 53.25 24.25 54.85 24.2 56.65 24.1 57.8 25.05 58.9 26.05 58.85 27.9
L 58.85 37.95
Q 58.85 38.55 59.2 38.95 59.6 39.35 60.1 39.3 61.05 39.1 61.05 37.95
L 61.1 32.65
Q 61.1 29.45 61.05 27.35 61 24.5 59 23.1 57.2 21.9 54.7 22.15 53.4 22.3 51.3 23.25 51.3 22.55 51.25 22.3
L 51.25 17.05
Q 51.25 16.25 50.95 15.95 50.7 15.6 50.1 15.6 49.5 15.7 49.3 15.95
M 43.35 24.65
Q 43.35 23.25 42.05 22.85 38.45 21.75 35.65 22.2 33.8 22.5 32.5 23.9 31.2 25.35 31.1 27.15
L 31.1 34.15
Q 31.2 35.7 32.15 37 33.15 38.3 34.65 38.8 37.8 39.8 40.5 38.2 40.85 38 41 38.05 41.1 38.15 41.1 38.5
L 41.1 40.75
Q 41.1 42.15 40.15 43.1 39.1 44.05 37.7 44.1 35.5 44.2 33.65 43.4 32.6 42.9 32.1 43.75 31.6 44.7 32.9 45.2 33.8 45.65 35.15 45.9 37.1 46.35 39.05 45.9 41.1 45.35 42.25 43.85 43.3 42.4 43.35 40.25
L 43.35 24.65
M 41.2 25.45
L 41.2 34.95
Q 41.1 35.7 40.5 36.15 37.7 37.9 35.15 36.65 33.4 35.9 33.4 33.85
L 33.4 28
Q 33.4 24.4 37 24.2 38 24.1 40.5 24.6 41.2 24.7 41.2 25.45
M 72.7 22.4
L 71.4 22.15
Q 69.15 21.9 67.6 23.1 66 24.35 66.1 26.6
L 66.15 38.1
Q 66.15 39.1 67.1 39.2 67.9 39.3 68.25 38.4 68.35 38.05 68.35 37.3
L 68.35 26.55
Q 68.35 24.85 70.15 24.35 70.6 24.2 71.2 24.3 71.55 24.35 72.25 24.45 73.45 24.6 73.7 23.75 73.85 23.3 73.5 22.9 73.2 22.5 72.7 22.4
M 85.35 27.9
Q 85.35 28.95 85.2 29.05 85.15 29.15 84 29.15 80.25 29.15 78.45 29.8 75.55 30.8 75.45 34 75.35 37.3 77.95 38.4 81.75 40.1 86.85 38.3 87.65 38.05 87.65 37.05 87.6 35.3 87.6 31.85
L 87.6 26.6
Q 87.45 24.25 85.8 23.3 82.1 21 77.4 23.2 76.2 23.8 76.6 24.65 76.95 25.75 78.3 25.15 79.7 24.6 80.9 24.3 83 23.85 84.2 24.85 85.4 25.8 85.35 27.9
M 85.35 31.85
L 85.35 35.35
Q 85.35 36.4 85.15 36.55 85.05 36.8 84 37 81.85 37.4 79.8 37 78.8 36.75 78.15 35.95 77.55 35.15 77.55 34.05 77.65 33 78.4 32.25 79.2 31.45 80.35 31.35 81.3 31.2 84.65 31.2 85.35 31.2 85.35 31.85
M 110.75 22.3
Q 109.85 22.3 109.85 23.55
L 109.85 38.25
Q 109.85 39.2 110.75 39.35 111.6 39.45 111.9 38.55 112.05 38.2 112.05 37.45
L 112.05 24.2
Q 112.05 23.55 112 23.3 111.75 22.15 110.75 22.3
M 103.35 15.75
Q 102.25 15.75 102.25 17.1
L 102.25 22.8
Q 102.25 23.3 102.1 23.4 101.9 23.5 101.45 23.2 100.65 22.65 98.9 22.3 96.3 22.05 94.45 23.3 92.4 24.75 92.3 27.55 92.2 32.1 92.3 34.3 92.35 35.95 93.45 37.3 94.45 38.6 96.15 39.1 98.9 39.85 103.05 38.7 103.95 38.45 104.25 38.05 104.5 37.65 104.5 36.65
L 104.5 17.1
Q 104.5 15.75 103.35 15.75
M 99.2 24.4
Q 99.45 24.45 100.15 24.6 101.65 25.1 102.05 25.6 102.45 26.15 102.45 27.7
L 102.45 36.15
Q 102.35 36.35 102.25 36.65 102.15 36.85 101.85 36.9 100.25 37.25 99.55 37.3 98.25 37.45 97.25 37.2 96.1 36.9 95.4 36.05 94.7 35.15 94.7 34
L 94.7 28.05
Q 94.7 26.1 96 25.1 97.3 24.05 99.2 24.4
M 110.9 16.55
Q 110.25 16.55 109.7 17.05 109.2 17.6 109.2 18.25 109.2 19 109.7 19.5 110.25 20 110.9 20 111.6 20 112.1 19.5 112.65 18.95 112.65 18.25 112.65 17.6 112.15 17.1 111.65 16.6 110.9 16.55
M 127.05 23.05
Q 126.9 23.4 126.9 24.2
L 126.9 35.9
Q 127 36.8 126.2 36.9 124.85 37.2 124.1 37.25 121.95 37.5 120.75 36.6 119.35 35.55 119.4 33.25
L 119.4 24.2
Q 119.4 23.45 119.25 23.1 118.9 22.2 118.1 22.3 117.15 22.4 117.15 23.4 117.15 25.2 117.1 28.9 117.1 32.25 117.15 34.45 117.2 36 118.1 37.2 119 38.4 120.45 38.9 123.6 39.9 128.2 38.45 129.2 38.2 129.2 36.95
L 129.2 30.3
Q 129.2 25.75 129.15 23.4 129.15 22.5 128.3 22.3 127.4 22.1 127.05 23.05
M 143.7 24.4
Q 144.1 23.6 142.85 23.05 141.25 22.4 139.35 22.25 137.4 22.25 136 23 134.6 23.75 134.15 25.05 132.85 29.15 136.8 30.8 140 32.05 141 32.75 141.65 33.2 141.95 33.9 142.2 34.6 142 35.3 141.65 36.4 140.5 36.9 139.35 37.45 137.95 37.25 136.9 37.05 135.25 36.55 134.25 36.3 133.95 37.05 133.55 38.05 134.55 38.45 137.75 39.7 140.25 39.25 141.75 39 142.8 37.95 143.95 36.85 144.15 35.5 144.7 32.2 141.55 30.65
L 137.5 28.8
Q 135.95 28.05 135.95 26.6 136.05 25.05 137.95 24.45 139 24.2 140.1 24.4 140.65 24.5 142.15 24.95 143.3 25.35 143.7 24.4 Z"/>
</g>
</g>
</g>

<g transform="matrix( 0.887969970703125, 0, 0, 0.887969970703125, 15.85,5.65) ">
<g>
<g>
<path fill="#FFFFFF" fill-opacity="0.6" stroke="none" d="
M 37 45.2
L 36 45.2 36 52.95 37 52.95 37 45.2
M 78.05 48.15
Q 77.4 47.2 76.2 47.2 75 47.2 74.3 48.05 73.6 48.9 73.6 50.2 73.6 51.5 74.3 52.25 75.05 53 76.3 53 77.65 53 78.15 52.7
L 78 52
Q 77.5 52.3 76.5 52.3 74.6 52.3 74.6 50.4
L 74.6 50.3 78.5 50.3 78.5 49.8
Q 78.5 48.85 78.05 48.15
M 76.2 47.95
Q 76.95 47.95 77.3 48.6 77.6 49.1 77.6 49.7
L 74.6 49.7
Q 74.7 49 75.05 48.55 75.5 47.95 76.2 47.95
M 70.5 46.05
L 70.5 47.35 69.6 47.35 69.6 48.15 70.5 48.15 70.5 51.15
Q 70.5 52.25 70.9 52.65 71.3 53.05 72 53.05 72.7 53.05 72.9 52.95
L 72.9 52.15
Q 72.8 52.25 72.3 52.25 71.5 52.25 71.5 51.15
L 71.5 48.15 73 48.15 73 47.35 71.5 47.35 71.5 45.75 70.5 46.05
M 64.75 47.7
L 64.95 48.4
Q 65.75 48 66.45 48 67.75 48 67.75 49.3
L 67.75 49.4
Q 64.4 49.4 64.4 51.45 64.4 52.1 64.8 52.55 65.25 53.05 66.05 53.05 67.2 53.05 67.75 52.25
L 67.9 52.95 67.9 52.9 68.8 52.9
Q 68.7 52.6 68.7 51.6
L 68.7 49.5
Q 68.7 47.2 66.55 47.2 65.6 47.2 64.75 47.7
M 67.8 51.25
L 67.7 51.55
Q 67.25 52.45 66.3 52.45 65.3 52.45 65.3 51.45 65.3 50.2 67.7 50.2
L 67.8 50.2 67.8 51.25
M 63.5 47.35
Q 62.45 47.35 62 48.55
L 62 47.45 61.1 47.45 61.1 53.15 62.1 53.15 62.1 49.65
Q 62.45 48.35 63.5 48.35
L 63.8 48.35 63.8 47.35 63.5 47.35
M 59.5 47.3
L 58.5 47.3 58.5 48.1
Q 58.1 47.1 56.8 47.1 55.75 47.1 55.05 47.9 54.3 48.75 54.3 50.1 54.3 51.25 55 52 55.65 52.8 56.7 52.8 57.95 52.8 58.5 51.9
L 58.5 52.5
Q 58.5 54.5 56.7 54.5 55.9 54.5 55.1 54.1
L 54.8 54.9
Q 55.65 55.4 56.7 55.4 58 55.4 58.7 54.7 59.5 53.9 59.5 52.1
L 59.5 47.3
M 55.8 48.55
Q 56.25 48 57 48 58.05 48 58.4 49.1 58.5 49.3 58.5 49.6
L 58.5 50.6
Q 58.5 50.9 58.4 51.1 58.05 52.1 57 52.1 56.2 52.1 55.75 51.5 55.3 50.95 55.3 50.1 55.3 49.15 55.8 48.55
M 52.95 48.15
Q 52.3 47.2 51.1 47.2 49.9 47.2 49.2 48.05 48.5 48.9 48.5 50.2 48.5 51.5 49.2 52.25 49.95 53 51.2 53 52.55 53 53.05 52.7
L 52.9 52
Q 52.4 52.3 51.4 52.3 49.5 52.3 49.5 50.4
L 49.5 50.3 53.4 50.3 53.4 49.8
Q 53.4 48.85 52.95 48.15
M 51.1 47.95
Q 51.85 47.95 52.2 48.6 52.5 49.1 52.5 49.7
L 49.5 49.7
Q 49.6 49 49.95 48.55 50.4 47.95 51.1 47.95
M 42.9 47.7
Q 42.35 47.2 41.6 47.2 40.45 47.2 39.8 48.3
L 39.7 47.4 38.8 47.4 38.8 52.9 39.8 52.9 39.8 49.5 39.9 49
Q 40.3 48 41.3 48 42.6 48 42.6 49.7
L 42.6 52.9 43.6 52.9 43.6 49.6
Q 43.6 48.3 42.9 47.7
M 44.5 48.15
L 45.4 48.15 45.4 51.15
Q 45.4 52.25 45.8 52.65 46.2 53.05 46.9 53.05 47.6 53.05 47.8 52.95
L 47.8 52.15
Q 47.7 52.25 47.2 52.25 46.4 52.25 46.4 51.15
L 46.4 48.15 47.9 48.15 47.9 47.35 46.4 47.35 46.4 45.75 45.4 46.05 45.4 47.35 44.5 47.35 44.5 48.15
M 112.25 46.45
Q 112.9 46.45 112.9 45.9 112.9 45.15 112.25 45.3 111.65 45.3 111.65 45.9 111.65 46.45 112.25 46.45
M 112.75 47.4
L 111.75 47.4 111.75 52.95 112.75 52.95 112.75 47.4
M 114.9 47.4
L 113.9 47.4 116 52.95 117 52.95 119.2 47.4 118.1 47.4 117 50.45
Q 116.6 51.5 116.5 51.9
L 114.9 47.4
M 109.95 48.15
Q 109.3 47.2 108.1 47.2 106.9 47.2 106.2 48.05 105.5 48.9 105.5 50.2 105.5 51.5 106.2 52.25 106.95 53 108.2 53 109.55 53 110.05 52.7
L 109.9 52
Q 109.4 52.3 108.4 52.3 106.5 52.3 106.5 50.4
L 106.5 50.3 110.4 50.3 110.4 49.8
Q 110.4 48.85 109.95 48.15
M 106.95 48.55
Q 107.4 47.95 108.1 47.95 108.85 47.95 109.2 48.6 109.5 49.1 109.5 49.7
L 106.5 49.7
Q 106.6 49 106.95 48.55
M 104.85 47.45
Q 103.95 47.15 103.45 47.15 102.1 47.15 101.3 48 100.45 48.85 100.45 50.15 100.45 51.5 101.2 52.3 101.95 53.05 103.25 53.05 103.85 53.05 104.9 52.75
L 104.85 52.75 104.55 51.85
Q 103.95 52.15 103.35 52.15 102.5 52.15 102 51.6 101.45 51 101.45 50.05 101.45 49.1 101.95 48.55 102.5 47.95 103.45 47.95 104.05 47.95 104.65 48.25
L 104.85 47.45
M 97.3 47.2
Q 96.1 47.2 95.4 48.05 94.7 48.85 94.7 50.2 94.7 51.5 95.4 52.2 96.15 52.95 97.4 52.95 98.8 52.95 99.25 52.7
L 99.05 51.95
Q 98.7 52.25 97.55 52.25 95.7 52.25 95.7 50.35
L 95.7 50.25 99.6 50.25 99.6 49.75
Q 99.6 48.8 99.15 48.1 98.5 47.2 97.3 47.2
M 97.2 47.95
Q 97.9 47.95 98.25 48.6 98.55 49.05 98.55 49.65
L 95.55 49.65
Q 95.85 47.95 97.2 47.95
M 89.9 49.45
L 90.8 49.45
Q 91.55 49.45 91.9 49.8 92.25 50.1 92.4 50.95 92.7 52.45 92.9 52.85
L 93.9 52.85
Q 93.85 52.8 93.3 50.75 93.15 49.45 92.2 49.15 93.7 48.6 93.7 47.15 93.7 46.15 93.05 45.65 92.3 45.05 90.75 45.05
L 88.9 45.25 88.9 52.85 89.9 52.85 89.9 49.45
M 89.9 48.85
L 89.9 45.95
Q 90.05 45.85 90.9 45.85 92.7 46 92.7 47.35 92.7 48.05 92.2 48.45 91.7 48.85 90.9 48.85
L 89.9 48.85
M 83.7 44.9
L 83.7 48.2
Q 83.15 47.25 82 47.25 80.9 47.25 80.25 48.05 79.5 48.85 79.5 50.25 79.5 51.5 80.2 52.3 80.85 53.05 81.9 53.05 83.25 53.05 83.8 51.95
L 83.8 52.95 84.7 52.95 84.7 44.9 83.7 44.9
M 82.2 48.05
Q 83.25 48.05 83.7 49.25
L 83.7 51.15
Q 83.35 52.35 82.2 52.35 81.4 52.35 80.95 51.7 80.5 51.1 80.5 50.25 80.5 48.05 82.2 48.05
M 133.1 44.75
L 132.1 44.75 132.1 52.95 133.1 52.95 133.1 44.75
M 140.9 47.85
Q 140.4 48.3 140.4 49 140.4 50 141.9 50.6 142.9 50.9 142.9 51.6 142.9 51.9 142.6 52.15 142.3 52.4 141.8 52.4 141.05 52.4 140.5 51.95
L 140.45 52 140.25 52.8
Q 141.15 53.2 141.9 53.2 142.85 53.2 143.45 52.75 144 52.25 144 51.5 144 50.4 142.5 49.8 141.4 49.55 141.4 48.9 141.4 48.1 142.25 48.1 142.8 48.1 143.4 48.4
L 143.7 47.7
Q 142.8 47.4 142.3 47.4 141.4 47.4 140.9 47.85
M 138.85 48.15
Q 138.2 47.2 137 47.2 135.8 47.2 135.1 48.05 134.4 48.9 134.4 50.2 134.4 51.5 135.1 52.25 135.85 53 137.1 53 138.45 53 138.95 52.7
L 138.8 52
Q 138.3 52.3 137.3 52.3 135.4 52.3 135.4 50.4
L 135.4 50.3 139.3 50.3 139.3 49.8
Q 139.3 48.85 138.85 48.15
M 137 47.95
Q 137.75 47.95 138.1 48.6 138.4 49.1 138.4 49.7
L 135.4 49.7
Q 135.5 49 135.85 48.55 136.3 47.95 137 47.95
M 122.95 49.3
L 122.95 49.4
Q 119.6 49.4 119.6 51.45 119.6 52.1 120 52.55 120.45 53.05 121.25 53.05 122.4 53.05 122.95 52.25
L 123.1 52.95 123.1 52.9 124 52.9
Q 123.9 52.6 123.9 51.6
L 123.9 49.5
Q 123.9 47.2 121.75 47.2 120.8 47.2 119.95 47.7
L 120.15 48.4
Q 120.95 48 121.65 48 122.95 48 122.95 49.3
M 123 50.2
L 123 51.25 122.9 51.55
Q 122.45 52.45 121.5 52.45 120.5 52.45 120.5 51.45 120.5 50.2 122.9 50.2
L 123 50.2
M 128.4 47.25
Q 127.25 47.25 126.5 48.25
L 126.5 44.75 125.5 44.75 125.5 52.95 126.4 53 126.4 52.1
Q 126.9 53.2 128.25 53.2 129.25 53.2 129.95 52.45 130.75 51.6 130.75 50.2 130.75 48.9 130.1 48.05 129.4 47.25 128.4 47.25
M 128.1 48.2
Q 128.9 48.2 129.35 48.85 129.8 49.45 129.8 50.3 129.8 51.2 129.35 51.8 128.9 52.4 128.1 52.4 126.95 52.4 126.6 51.2
L 126.6 50.75 126.5 50.8 126.5 49.8 126.6 49.4
Q 126.95 48.2 128.1 48.2 Z"/>
</g>
</g>
</g>
</g>
</svg>
