<svg id="Layer_1" data-name="Layer 1" xmlns="http://www.w3.org/2000/svg" width="43" height="43.16" viewBox="0 0 43 43.16">

  <g>
    <path class="cls-1" d="M36.42,52.86l-1,.23Z" transform="translate(-10.1 -10.82)"/>
    <path class="cls-1" d="M26.65,52.94l-.16,0Z" transform="translate(-10.1 -10.82)"/>
    <path class="cls-1" d="M29.89,53.42l-.32,0Z" transform="translate(-10.1 -10.82)"/>
    <path class="cls-1" d="M33.75,53.34l-.78.07Z" transform="translate(-10.1 -10.82)"/>
    <path class="cls-1" d="M28.13,53.23h0Z" transform="translate(-10.1 -10.82)"/>
    <path class="cls-1" d="M37.7,52.49c-.39.13-.79.24-1.2.35Z" transform="translate(-10.1 -10.82)"/>
    <path class="cls-1" d="M45,30A21.12,21.12,0,0,1,26.21,44.29,21.32,21.32,0,0,0,41.14,51a19.43,19.43,0,0,1-3.43,1.49,20.78,20.78,0,0,0,9.84-6.79A20.77,20.77,0,0,0,48,41.22,21.75,21.75,0,0,0,45,30Z" transform="translate(-10.1 -10.82)"/>
    <path class="cls-1" d="M32.56,53.44c-.4,0-.8,0-1.2,0C31.76,53.48,32.16,53.47,32.56,53.44Z" transform="translate(-10.1 -10.82)"/>
    <path class="cls-1" d="M35,53.16l-.75.12Z" transform="translate(-10.1 -10.82)"/>
    <path class="cls-1" d="M12.85,28.74a19.41,19.41,0,0,1,12-8,18,18,0,0,1,3.61-.37A19.25,19.25,0,0,1,45,30" transform="translate(-10.1 -10.82)"/>
    <path class="cls-1" d="M47.55,45.7h0A20.61,20.61,0,0,0,52.6,32.16a21,21,0,0,0-41.82-2" transform="translate(-10.1 -10.82)"/>
    <path class="cls-1" d="M35.38,53.09l-.42.07Z" transform="translate(-10.1 -10.82)"/>
    <path class="cls-1" d="M36.5,52.84l-.08,0Z" transform="translate(-10.1 -10.82)"/>
    <path class="cls-1" d="M37.71,52.49h0Z" transform="translate(-10.1 -10.82)"/>
    <path class="cls-1" d="M34.21,53.28l-.46.06Z" transform="translate(-10.1 -10.82)"/>
    <path class="cls-1" d="M28.09,53.22c-.48-.08-1-.17-1.44-.28C27.13,53.05,27.61,53.15,28.09,53.22Z" transform="translate(-10.1 -10.82)"/>
    <path class="cls-1" d="M12.85,28.74a20.84,20.84,0,0,0-2.17,3.9v-.48c0-.69,0-1.37.1-2a21.7,21.7,0,0,0-.18,2.69A20.73,20.73,0,0,0,26.49,52.9,20.72,20.72,0,0,1,12,40.17" transform="translate(-10.1 -10.82)"/>
    <path class="cls-1" d="M26.21,44.29a18.47,18.47,0,0,1-1.35-23.54" transform="translate(-10.1 -10.82)"/>
    <path class="cls-1" d="M31.36,53.48q-.73,0-1.47-.06Q30.63,53.48,31.36,53.48Z" transform="translate(-10.1 -10.82)"/>
    <path class="cls-1" d="M33,53.41l-.41,0Z" transform="translate(-10.1 -10.82)"/>
    <path class="cls-1" d="M29.57,53.4c-.48,0-1-.1-1.44-.17C28.6,53.3,29.09,53.36,29.57,53.4Z" transform="translate(-10.1 -10.82)"/>
  </g>
</svg>
