<?xml version="1.0" encoding="utf-8"?>
<!-- Generator: Adobe Illustrator 19.0.0, SVG Export Plug-In . SVG Version: 6.00 Build 0)  -->
<svg version="1.1" id="tag" xmlns="http://www.w3.org/2000/svg" xmlns:xlink="http://www.w3.org/1999/xlink" x="0px" y="0px"
	 viewBox="0 0 96 96" enable-background="new 0 0 96 96" xml:space="preserve">
<path fill="#FFFFFF" d="M52.0684,90.0508c-2.6934,0-5.2197-1.043-7.1143-2.9365L6.0591,48.3057L6.0024,6h42.4272l39.0137,38.8472
	c3.9141,3.9165,3.9658,10.0044,0.1133,13.856L59.1543,87.127c-1.8848,1.8857-4.4014,2.9238-7.085,2.9238
	C52.0693,90.0508,52.0693,90.0508,52.0684,90.0508z M10.0615,46.6665l37.7246,37.5552c1.1621,1.1631,2.7061,1.8057,4.3428,1.8057
	c1.5908,0,3.082-0.6133,4.1973-1.7275l28.4014-28.3574c2.2891-2.29,2.2373-5.9258-0.1162-8.2793L46.7666,10H9.8198L10.0615,46.6665z
	"/>
<path fill="#FFFFFF" d="M34,42c-4.4111,0-8-3.5889-8-8s3.5889-8,8-8s8,3.5889,8,8S38.4111,42,34,42z M34,30c-2.2056,0-4,1.7944-4,4
	s1.7944,4,4,4s4-1.7944,4-4S36.2056,30,34,30z"/>
</svg>
