<?xml version="1.0" encoding="utf-8"?>
<!-- Generator: Adobe Illustrator 19.0.0, SVG Export Plug-In . SVG Version: 6.00 Build 0)  -->
<svg version="1.1" id="paper" xmlns="http://www.w3.org/2000/svg" xmlns:xlink="http://www.w3.org/1999/xlink" x="0px" y="0px"
	 viewBox="0 0 96 96" enable-background="new 0 0 96 96" xml:space="preserve">
<path fill="#FFFFFF" d="M20,94c-5.5142,0-10-4.4863-10-10V12c0-5.5142,4.4858-10,10-10h56c5.5137,0,10,4.4858,10,10v72
	c0,5.5137-4.4863,10-10,10H20z M20,6c-3.3086,0-6,2.6914-6,6v72c0,3.3086,2.6914,6,6,6h56c3.3086,0,6-2.6914,6-6V12
	c0-3.3086-2.6914-6-6-6H20z"/>
<path fill="#FFFFFF" d="M32,74c-1.103,0-2-0.8975-2-2s0.897-2,2-2h32c1.1025,0,2,0.8975,2,2s-0.8975,2-2,2H32z"/>
<path fill="#FFFFFF" d="M32,58c-1.103,0-2-0.8975-2-2s0.897-2,2-2h32c1.1025,0,2,0.8975,2,2s-0.8975,2-2,2H32z"/>
<path fill="#FFFFFF" d="M32,42c-1.103,0-2-0.897-2-2s0.897-2,2-2h32c1.1025,0,2,0.897,2,2s-0.8975,2-2,2H32z"/>
<path fill="#FFFFFF" d="M32,26c-1.103,0-2-0.897-2-2s0.897-2,2-2h16c1.1025,0,2,0.897,2,2s-0.8975,2-2,2H32z"/>
</svg>
