<?xml version="1.0" encoding="utf-8"?>
<!-- Generator: Adobe Illustrator 19.0.0, SVG Export Plug-In . SVG Version: 6.00 Build 0)  -->
<svg version="1.1" id="grid" xmlns="http://www.w3.org/2000/svg" xmlns:xlink="http://www.w3.org/1999/xlink" x="0px" y="0px"
	 viewBox="0 0 96 96" enable-background="new 0 0 96 96" xml:space="preserve">
<path fill="#FFFFFF" d="M16,42c-5.5142,0-10-4.4858-10-10V16c0-5.5142,4.4858-10,10-10h16c5.5142,0,10,4.4858,10,10v16
	c0,5.5142-4.4858,10-10,10H16z M16,10c-3.3086,0-6,2.6914-6,6v16c0,3.3086,2.6914,6,6,6h16c3.3086,0,6-2.6914,6-6V16
	c0-3.3086-2.6914-6-6-6H16z"/>
<path fill="#FFFFFF" d="M64,42c-5.5137,0-10-4.4858-10-10V16c0-5.5142,4.4863-10,10-10h16c5.5137,0,10,4.4858,10,10v16
	c0,5.5142-4.4863,10-10,10H64z M64,10c-3.3086,0-6,2.6914-6,6v16c0,3.3086,2.6914,6,6,6h16c3.3086,0,6-2.6914,6-6V16
	c0-3.3086-2.6914-6-6-6H64z"/>
<path fill="#FFFFFF" d="M64,90c-5.5137,0-10-4.4863-10-10V64c0-5.5137,4.4863-10,10-10h16c5.5137,0,10,4.4863,10,10v16
	c0,5.5137-4.4863,10-10,10H64z M64,58c-3.3086,0-6,2.6914-6,6v16c0,3.3086,2.6914,6,6,6h16c3.3086,0,6-2.6914,6-6V64
	c0-3.3086-2.6914-6-6-6H64z"/>
<path fill="#FFFFFF" d="M16,90c-5.5142,0-10-4.4863-10-10V64c0-5.5137,4.4858-10,10-10h16c5.5142,0,10,4.4863,10,10v16
	c0,5.5137-4.4858,10-10,10H16z M16,58c-3.3086,0-6,2.6914-6,6v16c0,3.3086,2.6914,6,6,6h16c3.3086,0,6-2.6914,6-6V64
	c0-3.3086-2.6914-6-6-6H16z"/>
</svg>
