<?xml version="1.0" encoding="utf-8"?>
<!-- Generator: Adobe Illustrator 19.0.0, SVG Export Plug-In . SVG Version: 6.00 Build 0)  -->
<svg version="1.1" id="inbox" xmlns="http://www.w3.org/2000/svg" xmlns:xlink="http://www.w3.org/1999/xlink" x="0px" y="0px"
	 viewBox="0 0 96 96" enable-background="new 0 0 96 96" xml:space="preserve">
<path fill="#FFFFFF" d="M12.188,82C6.5703,82,2,77.5137,2,72V36.8286L24.8286,14h46.3403L94,36.9502V72c0,5.5137-4.4863,10-10,10
	H12.188z M6,72c0,3.252,2.834,6,6.188,6H84c3.3086,0,6-2.6914,6-6V42.1021l-20.9326-0.0825l-0.4912,1.2949
	C65.29,51.9609,56.7793,58,47.8789,58c-8.9478,0-17.4873-6.0479-20.7661-14.7085L26.6235,42H6V72z M30.1221,38
	C31.1865,46.729,39.0845,54,48,54c8.9131,0,16.8086-7.2676,17.877-15.9927l23.6221,0.0928L69.6729,18H26.4844l-20,20H30.1221z"/>
</svg>
