<?xml version="1.0" encoding="utf-8"?>
<!-- Generator: Adobe Illustrator 19.0.0, SVG Export Plug-In . SVG Version: 6.00 Build 0)  -->
<svg version="1.1" id="cog" xmlns="http://www.w3.org/2000/svg" xmlns:xlink="http://www.w3.org/1999/xlink" x="0px" y="0px"
	 viewBox="0 0 96 96" enable-background="new 0 0 96 96" xml:space="preserve">
<path fill="#FFFFFF" d="M48.082,94.0039c-5.4678,0-9.916-4.4482-9.916-9.916v-3.501l-1.3374-0.4697
	c-1.2275-0.4316-2.4023-0.9121-3.4917-1.4297l-1.2744-0.6055l-2.5073,2.5078c-1.8735,1.873-4.3638,2.9053-7.0127,2.9053
	s-5.1392-1.0322-7.0122-2.9053c-1.873-1.875-2.9048-4.3662-2.9048-7.0156c0-2.6484,1.0313-5.1367,2.9043-7.0078l2.4746-2.4795
	l-0.6196-1.2793c-0.5317-1.0977-1.0176-2.2666-1.4438-3.4736L15.4702,58H11.915c-5.4678,0-9.917-4.4482-9.918-9.9165
	c0-5.4683,4.4487-9.9175,9.917-9.9175h3.5044l0.4673-1.3428c0.4434-1.2729,0.9468-2.4941,1.4971-3.6294l0.6196-1.2788
	l-2.4717-2.4766c-3.8677-3.8696-3.8687-10.1616-0.0029-14.0273c1.8735-1.873,4.3647-2.9048,7.0137-2.9048
	c2.6484,0,5.1392,1.0317,7.0122,2.9048l2.5117,2.5112l1.2769-0.6118c1.0854-0.5205,2.2559-0.9995,3.479-1.4243l1.3438-0.4663
	v-3.5068c0-5.4678,4.4482-9.916,9.916-9.916c5.4688,0,9.918,4.4482,9.918,9.916v3.5581l1.335,0.4702
	c1.208,0.4253,2.375,0.9102,3.4707,1.4414l1.2803,0.6206l2.4756-2.4751c1.873-1.8721,4.3643-2.9033,7.0137-2.9033
	s5.1396,1.0308,7.0117,2.9028c3.8643,3.8696,3.8652,10.1616,0,14.0254l-2.5098,2.5146l0.6104,1.2754
	c0.5205,1.0879,1,2.2588,1.4248,3.48l0.4668,1.3428h3.5059c5.4688,0,9.918,4.4492,9.918,9.918c0,5.4678-4.4492,9.916-9.918,9.916
	h-3.5537l-0.4717,1.333c-0.4072,1.1543-0.8691,2.2725-1.3721,3.3242l-0.6094,1.2754l2.5078,2.5127
	c3.8682,3.8711,3.8691,10.1621,0.002,14.0254c-1.873,1.874-4.3633,2.9053-7.0127,2.9053c-2.6484,0-5.1396-1.0313-7.0127-2.9043
	l-2.4756-2.4736l-1.2793,0.6182c-1.0996,0.5322-2.2686,1.0176-3.4727,1.4434L58,80.5303v3.5566c0,5.4678-4.4492,9.916-9.9185,9.917
	H48.082z M42,84c0,3.3086,2.6914,6,6,6c3.3096-0.0029,6-2.6943,6-6v-6.6064c3.7549-0.7646,7.3467-2.252,10.5439-4.3643l4.6689,4.668
	c1.1338,1.1328,2.6406,1.7568,4.2432,1.7568s3.1094-0.624,4.2422-1.7559c2.3379-2.3418,2.3359-6.1475,0-8.4854l-4.6689-4.6689
	c2.1133-3.1982,3.6006-6.79,4.3643-10.5439H84c3.3086,0,6-2.6914,6-6s-2.6914-6-6-6h-6.6064
	c-0.7637-3.7544-2.25-7.3467-4.3643-10.5449l4.6699-4.6699c2.3389-2.3374,2.3389-6.1436,0.001-8.4839
	c-1.1348-1.1338-2.6416-1.7573-4.2441-1.7573s-3.1084,0.624-4.2412,1.7568l-4.6719,4.6704
	c-3.1973-2.1138-6.7891-3.6006-10.543-4.3647V12c0.001-1.6006-0.6221-3.1074-1.7549-4.2417C51.1123,6.6245,49.6055,6,48.0034,6
	c-3.311,0-6.0029,2.6904-6.0044,5.9971v6.6094c-3.7539,0.7637-7.3457,2.2505-10.543,4.3643l-4.6699-4.6699
	c-1.1313-1.1328-2.6382-1.7573-4.2417-1.7573s-3.1104,0.624-4.2432,1.7578c-2.3389,2.3384-2.3398,6.1445-0.002,8.4834l4.6724,4.6724
	c-2.1138,3.1963-3.6006,6.7876-4.3652,10.543H12c-3.3086,0-6,2.6914-6,6s2.6914,6,6,6h6.6074
	c0.7646,3.7549,2.252,7.3467,4.3652,10.5439l-4.6699,4.6689c-2.3389,2.3389-2.3389,6.1455-0.0005,8.4844
	c1.1343,1.1328,2.6406,1.7568,4.2427,1.7568s3.1084-0.624,4.2417-1.7559l4.6704-4.6709c3.1968,2.1133,6.7881,3.6006,10.543,4.3652
	V84z"/>
<path fill="#FFFFFF" d="M48,62c-7.7197,0-14-6.2803-14-14s6.2803-14,14-14s14,6.2803,14,14S55.7197,62,48,62z M48,38
	c-5.5142,0-10,4.4858-10,10c0,5.5137,4.4858,10,10,10c5.5137,0,10-4.4863,10-10C58,42.4858,53.5137,38,48,38z"/>
</svg>
