<?xml version="1.0" encoding="utf-8"?>
<!-- Generator: Adobe Illustrator 19.0.0, SVG Export Plug-In . SVG Version: 6.00 Build 0)  -->
<svg version="1.1" id="Layer_1" xmlns="http://www.w3.org/2000/svg" xmlns:xlink="http://www.w3.org/1999/xlink" x="0px" y="0px"
	 viewBox="0 0 24 24" enable-background="new 0 0 24 24" xml:space="preserve">
<g>
	<path fill="#FFFFFF" d="M4,21.5c-0.2759,0-0.5-0.2246-0.5-0.5c0-1.4824,0.002-3.5723,0.0068-4.5h0.0063V16
		c0-0.0576,0.001-0.1221,0.0137-0.1602l1.999-5.9976C5.5942,9.6372,5.7847,9.5,6,9.5h3.5v1H6.3608l-2.0005,6h15.2793l-2-6H14.5v-1
		H18c0.2148,0,0.4053,0.1377,0.4736,0.3428l2,5.999c0.0127,0.0371,0.0137,0.1006,0.0137,0.1582v0.5h0.0059
		C20.498,17.4277,20.5,19.5176,20.5,21c0,0.2754-0.2246,0.5-0.5,0.5H4z"/>
	<path fill="#FFFFFF" d="M12,12.5c-0.2759,0-0.5-0.2241-0.5-0.5V4.1211L8.3535,7.2676C8.2671,7.354,8.1382,7.4038,8,7.4038
		S7.7329,7.354,7.6465,7.2676c-0.0942-0.0942-0.146-0.2197-0.146-0.3535s0.0518-0.2593,0.146-0.3535L12,2.207l4.3535,4.3535
		c0.1943,0.1948,0.1943,0.5122,0,0.707C16.2666,7.3535,16.1377,7.4038,16,7.4038s-0.2666-0.0498-0.3535-0.1367L12.5,4.1211V12
		C12.5,12.2759,12.2759,12.5,12,12.5z"/>
</g>
</svg>
